<svg width="28" height="28" viewBox="0 0 28 28" fill="none" xmlns="http://www.w3.org/2000/svg">
<path d="M19.7867 0.665527C24.3067 0.665527 27.3334 3.83886 27.3334 8.55886V19.4535C27.3334 24.1602 24.3067 27.3322 19.7867 27.3322H8.22675C3.70675 27.3322 0.666748 24.1602 0.666748 19.4535V8.55886C0.666748 3.83886 3.70675 0.665527 8.22675 0.665527H19.7867ZM18.0134 9.96019C17.5601 9.50553 16.8267 9.50553 16.3601 9.96019L14.0001 12.3322L11.6267 9.96019C11.1601 9.50553 10.4267 9.50553 9.97341 9.96019C9.52008 10.4135 9.52008 11.1602 9.97341 11.6122L12.3467 13.9869L9.97341 16.3469C9.52008 16.8135 9.52008 17.5469 9.97341 17.9989C10.2001 18.2255 10.5067 18.3469 10.8001 18.3469C11.1067 18.3469 11.4001 18.2255 11.6267 17.9989L14.0001 15.6402L16.3734 17.9989C16.6001 18.2402 16.8934 18.3469 17.1867 18.3469C17.4934 18.3469 17.7867 18.2255 18.0134 17.9989C18.4667 17.5469 18.4667 16.8135 18.0134 16.3602L15.6401 13.9869L18.0134 11.6122C18.4667 11.1602 18.4667 10.4135 18.0134 9.96019Z" fill="white"/>
</svg>
