<svg width="16" height="16" viewBox="0 0 16 16" fill="none" xmlns="http://www.w3.org/2000/svg">
<mask id="mask0_2797_10521" style="mask-type:alpha" maskUnits="userSpaceOnUse" x="1" y="1" width="14" height="14">
<path fill-rule="evenodd" clip-rule="evenodd" d="M7.99967 1.33398C4.31967 1.33398 1.33301 4.32065 1.33301 8.00065C1.33301 11.6807 4.31967 14.6673 7.99967 14.6673C11.6797 14.6673 14.6663 11.6807 14.6663 8.00065C14.6663 4.32065 11.6797 1.33398 7.99967 1.33398ZM7.99967 8.66732C7.63301 8.66732 7.33301 8.36732 7.33301 8.00065V5.33398C7.33301 4.96732 7.63301 4.66732 7.99967 4.66732C8.36634 4.66732 8.66634 4.96732 8.66634 5.33398V8.00065C8.66634 8.36732 8.36634 8.66732 7.99967 8.66732ZM7.33301 10.0007V11.334H8.66634V10.0007H7.33301Z" fill="black"/>
</mask>
<g mask="url(#mask0_2797_10521)">
<rect width="16" height="16" fill="#F71735"/>
</g>
</svg>
