<svg width="39" height="68" viewBox="0 0 39 68" fill="none" xmlns="http://www.w3.org/2000/svg">
<mask id="path-1-inside-1_10_27" fill="white">
<rect x="10" y="9" width="10" height="7" rx="1"/>
</mask>
<rect x="10" y="9" width="10" height="7" rx="1" stroke="black" stroke-width="4" mask="url(#path-1-inside-1_10_27)"/>
<rect x="14" y="5" width="3" height="5" stroke="black" stroke-width="2"/>
<rect x="8" y="1" width="30" height="4" rx="2" stroke="black" stroke-width="2"/>
<path fill-rule="evenodd" clip-rule="evenodd" d="M35 4V7C35 7.55228 35.4477 8 36 8C36.5523 8 37 7.55228 37 7V3C37 2.44772 36.5523 2 36 2C35.9315 2 35.8646 2.00689 35.8 2.02C35.7354 2.00689 35.6685 2 35.6 2H33.1707C33.5825 0.834808 34.6938 0 36 0C37.6569 0 39 1.34315 39 3V7C39 8.65685 37.6569 10 36 10C34.3431 10 33 8.65685 33 7V4H35Z" fill="black"/>
<rect x="35" y="3" width="2" height="3" fill="white"/>
<path d="M0.274677 29.9546C0.238606 28.0314 0.591074 26.1198 1.31196 24.3289C2.03284 22.5379 3.10803 20.9028 4.47612 19.5167C5.84421 18.1307 7.47842 17.0209 9.28544 16.2508C11.0925 15.4807 13.0369 15.0653 15.0077 15.0283C16.9786 14.9914 18.9372 15.3336 20.7719 16.0354C22.6065 16.7372 24.2812 17.7849 25.7003 19.1187C27.1194 20.4524 28.2551 22.0461 29.0427 23.8088C29.8302 25.5714 30.2541 27.4685 30.2902 29.3917L28.3927 29.4272C28.3612 27.7472 27.9909 26.09 27.3029 24.5502C26.6149 23.0104 25.6228 21.6182 24.3831 20.4531C23.1434 19.288 21.6805 18.3727 20.0778 17.7596C18.4752 17.1466 16.7641 16.8476 15.0425 16.8799C13.3208 16.9122 11.6222 17.2751 10.0437 17.9478C8.4651 18.6206 7.03751 19.59 5.84239 20.8008C4.64727 22.0116 3.70803 23.4401 3.07828 25.0046C2.44854 26.5691 2.14064 28.239 2.17215 29.919L0.274677 29.9546Z" fill="black"/>
<path fill-rule="evenodd" clip-rule="evenodd" d="M28.2826 30.1963C28.2942 29.9658 28.3 29.7336 28.3 29.5C28.3 29.2664 28.2942 29.0342 28.2826 28.8037V28.7852C28.2826 28.6967 28.2769 28.6096 28.2657 28.5241C28.178 27.2826 27.9229 26.0919 27.5146 24.9785C29.1209 25.498 30.2826 27.0059 30.2826 28.7852V63.5C30.2826 65.7091 28.4918 67.5 26.2826 67.5H4.28262C2.07348 67.5 0.282623 65.7091 0.282623 63.5V28.7852C0.282623 26.9877 1.46829 25.4671 3.10021 24.9628C2.716 25.9952 2.46469 27.0942 2.35818 28.2388C2.30896 28.4125 2.28262 28.5958 2.28262 28.7852V63.5C2.28262 64.6045 3.17805 65.5 4.28262 65.5H26.2826C27.3872 65.5 28.2826 64.6045 28.2826 63.5V30.1963Z" fill="black"/>
<path d="M19.98 41.7C19.98 42.5536 19.8512 43.3988 19.6009 44.1874C19.3506 44.9761 18.9838 45.6926 18.5214 46.2962C18.0589 46.8998 17.51 47.3786 16.9058 47.7052C16.3016 48.0319 15.654 48.2 15 48.2C14.346 48.2 13.6984 48.0319 13.0942 47.7052C12.49 47.3786 11.941 46.8998 11.4786 46.2962C11.0162 45.6926 10.6493 44.9761 10.3991 44.1874C10.1488 43.3988 10.02 42.5536 10.02 41.7L15 41.7H19.98Z" fill="black"/>
<path d="M14.1147 33.685C14.4894 32.9718 15.5106 32.9718 15.8853 33.685L19.8594 41.2492C20.2093 41.9151 19.7264 42.7143 18.9742 42.7143H11.0258C10.2736 42.7143 9.79074 41.9151 10.1406 41.2492L14.1147 33.685Z" fill="black"/>
<path d="M15 32L17.7579 37.3571H12.2421L15 32Z" fill="black"/>
</svg>
