<svg width="96" height="87" viewBox="0 0 96 87" fill="none" xmlns="http://www.w3.org/2000/svg">
<path d="M58.5 31.1182C58.5 36.8134 57.1494 41.8961 55.0434 45.5037C52.9161 49.148 50.1974 51.0318 47.5 51.0318C44.8027 51.0318 42.084 49.148 39.9566 45.5037C37.8507 41.8961 36.5 36.8134 36.5 31.1182C36.5 25.4006 37.8558 22.5303 39.6337 21.0163C41.4608 19.4604 44.105 19 47.5 19C50.8951 19 53.5393 19.4604 55.3664 21.0163C57.1443 22.5303 58.5 25.4006 58.5 31.1182Z" stroke="#000000" stroke-width="6"/>
<path d="M30 61H61" stroke="#000000" stroke-width="6"/>
<path d="M61.0001 61H63.5501C63.5501 61 77.1501 70.8571 78.0001 84" stroke="#000000" stroke-width="6"/>
<path d="M32 61H29.45C29.45 61 15.85 70.8571 15 84" stroke="#000000" stroke-width="6"/>
<path d="M13.5 85L79.5 85" stroke="#000000" stroke-width="6"/>
<path d="M83.1813 12.0013C83.1813 16.202 82.1843 19.9316 80.6501 22.5598C79.0945 25.2246 77.1656 26.5027 75.3407 26.5027C73.5158 26.5027 71.5868 25.2246 70.0313 22.5598C68.4971 19.9316 67.5 16.202 67.5 12.0013C67.5 7.79345 68.4972 5.359 69.8208 3.97244C71.1313 2.59965 73.006 2 75.3407 2C77.6754 2 79.55 2.59965 80.8605 3.97244C82.1842 5.359 83.1813 7.79345 83.1813 12.0013Z" stroke="#000000" stroke-width="6"/>
<path d="M66 36.3234H85.0549" stroke="#000000" stroke-width="6"/>
<path d="M84.6813 36.3234H86.0264C86.0264 36.3234 93.2 43.4554 93.6484 52.9648" stroke="#000000" stroke-width="6"/>
<path d="M12.467 12.0013C12.467 16.202 13.4641 19.9308 14.9982 22.5583C16.5537 25.2223 18.4825 26.5 20.3077 26.5C22.1328 26.5 24.0617 25.2223 25.6172 22.5583C27.1513 19.9308 28.1483 16.202 28.1483 12.0013C28.1483 7.79345 27.1512 5.359 25.8275 3.97244C24.517 2.59965 22.6424 2 20.3077 2C17.973 2 16.0983 2.59965 14.7878 3.97244C13.4642 5.359 12.467 7.79345 12.467 12.0013Z" stroke="#000000" stroke-width="6"/>
<path d="M29.6483 36.3234H10.5934" stroke="#000000" stroke-width="6"/>
<path d="M10.967 36.3234H9.62199C9.62199 36.3234 2.44836 43.4554 2.00001 52.9648" stroke="#000000" stroke-width="6"/>
</svg>
