<svg width="14" height="14" viewBox="0 0 14 14" fill="none" xmlns="http://www.w3.org/2000/svg">
<path d="M13.6332 0.9272C13.6332 0.651866 13.4087 0.428664 13.1317 0.428664H8.6186C8.34165 0.428664 8.11714 0.651866 8.11714 0.9272C8.11714 1.20253 8.34165 1.42574 8.6186 1.42574L12.6303 1.42574V5.41403C12.6303 5.68936 12.8548 5.91256 13.1317 5.91256C13.4087 5.91256 13.6332 5.68936 13.6332 5.41403L13.6332 0.9272ZM8.31339 6.4225L13.4863 1.27972L12.7771 0.574682L7.60422 5.71746L8.31339 6.4225Z" fill="black"/>
<path d="M0.630193 12.9272C0.630193 13.2025 0.854704 13.4257 1.13165 13.4257H5.64479C5.92174 13.4257 6.14625 13.2025 6.14625 12.9272C6.14625 12.6519 5.92174 12.4286 5.64479 12.4286H1.63311V8.44036C1.63311 8.16503 1.4086 7.94182 1.13165 7.94182C0.854704 7.94182 0.630193 8.16503 0.630193 8.44036V12.9272ZM1.48624 13.2797L6.16755 8.62568L5.45838 7.92064L0.777067 12.5747L1.48624 13.2797Z" fill="black"/>
</svg>
